<?xml version="1.0" encoding="utf-8" standalone="no"?>
<!DOCTYPE svg PUBLIC "-//W3C//DTD SVG 1.1//EN"
  "http://www.w3.org/Graphics/SVG/1.1/DTD/svg11.dtd">
<svg xmlns:xlink="http://www.w3.org/1999/xlink" width="329.98125pt" height="266.51625pt" viewBox="0 0 329.98125 266.51625" xmlns="http://www.w3.org/2000/svg" version="1.1">
 <metadata>
  <rdf:RDF xmlns:dc="http://purl.org/dc/elements/1.1/" xmlns:cc="http://creativecommons.org/ns#" xmlns:rdf="http://www.w3.org/1999/02/22-rdf-syntax-ns#">
   <cc:Work>
    <dc:type rdf:resource="http://purl.org/dc/dcmitype/StillImage"/>
    <dc:date>2023-03-20T16:24:46.784662</dc:date>
    <dc:format>image/svg+xml</dc:format>
    <dc:creator>
     <cc:Agent>
      <dc:title>Matplotlib v3.6.2, https://matplotlib.org/</dc:title>
     </cc:Agent>
    </dc:creator>
   </cc:Work>
  </rdf:RDF>
 </metadata>
 <defs>
  <style type="text/css">*{stroke-linejoin: round; stroke-linecap: butt}</style>
 </defs>
 <g id="figure_1">
  <g id="patch_1">
   <path d="M 0 266.51625 
L 329.98125 266.51625 
L 329.98125 0 
L 0 0 
z
" style="fill: #ffffff"/>
  </g>
  <g id="axes_1">
   <g id="patch_2">
    <path d="M 43.78125 228.96 
L 322.78125 228.96 
L 322.78125 7.2 
L 43.78125 7.2 
z
" style="fill: #ffffff"/>
   </g>
   <g id="matplotlib.axis_1">
    <g id="xtick_1">
     <g id="line2d_1">
      <path d="M 56.463068 228.96 
L 56.463068 7.2 
" clip-path="url(#p6a268482d0)" style="fill: none; stroke: #b0b0b0; stroke-width: 0.8; stroke-linecap: square"/>
     </g>
     <g id="line2d_2">
      <defs>
       <path id="m7f1b373916" d="M 0 0 
L 0 3.5 
" style="stroke: #000000; stroke-width: 0.8"/>
      </defs>
      <g>
       <use xlink:href="#m7f1b373916" x="56.463068" y="228.96" style="stroke: #000000; stroke-width: 0.8"/>
      </g>
     </g>
     <g id="text_1">
      <!-- 25 -->
      <g transform="translate(50.100568 243.558437) scale(0.1 -0.1)">
       <defs>
        <path id="DejaVuSans-32" d="M 1228 531 
L 3431 531 
L 3431 0 
L 469 0 
L 469 531 
Q 828 903 1448 1529 
Q 2069 2156 2228 2338 
Q 2531 2678 2651 2914 
Q 2772 3150 2772 3378 
Q 2772 3750 2511 3984 
Q 2250 4219 1831 4219 
Q 1534 4219 1204 4116 
Q 875 4013 500 3803 
L 500 4441 
Q 881 4594 1212 4672 
Q 1544 4750 1819 4750 
Q 2544 4750 2975 4387 
Q 3406 4025 3406 3419 
Q 3406 3131 3298 2873 
Q 3191 2616 2906 2266 
Q 2828 2175 2409 1742 
Q 1991 1309 1228 531 
z
" transform="scale(0.015625)"/>
        <path id="DejaVuSans-35" d="M 691 4666 
L 3169 4666 
L 3169 4134 
L 1269 4134 
L 1269 2991 
Q 1406 3038 1543 3061 
Q 1681 3084 1819 3084 
Q 2600 3084 3056 2656 
Q 3513 2228 3513 1497 
Q 3513 744 3044 326 
Q 2575 -91 1722 -91 
Q 1428 -91 1123 -41 
Q 819 9 494 109 
L 494 744 
Q 775 591 1075 516 
Q 1375 441 1709 441 
Q 2250 441 2565 725 
Q 2881 1009 2881 1497 
Q 2881 1984 2565 2268 
Q 2250 2553 1709 2553 
Q 1456 2553 1204 2497 
Q 953 2441 691 2322 
L 691 4666 
z
" transform="scale(0.015625)"/>
       </defs>
       <use xlink:href="#DejaVuSans-32"/>
       <use xlink:href="#DejaVuSans-35" x="63.623047"/>
      </g>
     </g>
    </g>
    <g id="xtick_2">
     <g id="line2d_3">
      <path d="M 92.696834 228.96 
L 92.696834 7.2 
" clip-path="url(#p6a268482d0)" style="fill: none; stroke: #b0b0b0; stroke-width: 0.8; stroke-linecap: square"/>
     </g>
     <g id="line2d_4">
      <g>
       <use xlink:href="#m7f1b373916" x="92.696834" y="228.96" style="stroke: #000000; stroke-width: 0.8"/>
      </g>
     </g>
     <g id="text_2">
      <!-- 50 -->
      <g transform="translate(86.334334 243.558437) scale(0.1 -0.1)">
       <defs>
        <path id="DejaVuSans-30" d="M 2034 4250 
Q 1547 4250 1301 3770 
Q 1056 3291 1056 2328 
Q 1056 1369 1301 889 
Q 1547 409 2034 409 
Q 2525 409 2770 889 
Q 3016 1369 3016 2328 
Q 3016 3291 2770 3770 
Q 2525 4250 2034 4250 
z
M 2034 4750 
Q 2819 4750 3233 4129 
Q 3647 3509 3647 2328 
Q 3647 1150 3233 529 
Q 2819 -91 2034 -91 
Q 1250 -91 836 529 
Q 422 1150 422 2328 
Q 422 3509 836 4129 
Q 1250 4750 2034 4750 
z
" transform="scale(0.015625)"/>
       </defs>
       <use xlink:href="#DejaVuSans-35"/>
       <use xlink:href="#DejaVuSans-30" x="63.623047"/>
      </g>
     </g>
    </g>
    <g id="xtick_3">
     <g id="line2d_5">
      <path d="M 128.930601 228.96 
L 128.930601 7.2 
" clip-path="url(#p6a268482d0)" style="fill: none; stroke: #b0b0b0; stroke-width: 0.8; stroke-linecap: square"/>
     </g>
     <g id="line2d_6">
      <g>
       <use xlink:href="#m7f1b373916" x="128.930601" y="228.96" style="stroke: #000000; stroke-width: 0.8"/>
      </g>
     </g>
     <g id="text_3">
      <!-- 75 -->
      <g transform="translate(122.568101 243.558437) scale(0.1 -0.1)">
       <defs>
        <path id="DejaVuSans-37" d="M 525 4666 
L 3525 4666 
L 3525 4397 
L 1831 0 
L 1172 0 
L 2766 4134 
L 525 4134 
L 525 4666 
z
" transform="scale(0.015625)"/>
       </defs>
       <use xlink:href="#DejaVuSans-37"/>
       <use xlink:href="#DejaVuSans-35" x="63.623047"/>
      </g>
     </g>
    </g>
    <g id="xtick_4">
     <g id="line2d_7">
      <path d="M 165.164367 228.96 
L 165.164367 7.2 
" clip-path="url(#p6a268482d0)" style="fill: none; stroke: #b0b0b0; stroke-width: 0.8; stroke-linecap: square"/>
     </g>
     <g id="line2d_8">
      <g>
       <use xlink:href="#m7f1b373916" x="165.164367" y="228.96" style="stroke: #000000; stroke-width: 0.8"/>
      </g>
     </g>
     <g id="text_4">
      <!-- 100 -->
      <g transform="translate(155.620617 243.558437) scale(0.1 -0.1)">
       <defs>
        <path id="DejaVuSans-31" d="M 794 531 
L 1825 531 
L 1825 4091 
L 703 3866 
L 703 4441 
L 1819 4666 
L 2450 4666 
L 2450 531 
L 3481 531 
L 3481 0 
L 794 0 
L 794 531 
z
" transform="scale(0.015625)"/>
       </defs>
       <use xlink:href="#DejaVuSans-31"/>
       <use xlink:href="#DejaVuSans-30" x="63.623047"/>
       <use xlink:href="#DejaVuSans-30" x="127.246094"/>
      </g>
     </g>
    </g>
    <g id="xtick_5">
     <g id="line2d_9">
      <path d="M 201.398133 228.96 
L 201.398133 7.2 
" clip-path="url(#p6a268482d0)" style="fill: none; stroke: #b0b0b0; stroke-width: 0.8; stroke-linecap: square"/>
     </g>
     <g id="line2d_10">
      <g>
       <use xlink:href="#m7f1b373916" x="201.398133" y="228.96" style="stroke: #000000; stroke-width: 0.8"/>
      </g>
     </g>
     <g id="text_5">
      <!-- 125 -->
      <g transform="translate(191.854383 243.558437) scale(0.1 -0.1)">
       <use xlink:href="#DejaVuSans-31"/>
       <use xlink:href="#DejaVuSans-32" x="63.623047"/>
       <use xlink:href="#DejaVuSans-35" x="127.246094"/>
      </g>
     </g>
    </g>
    <g id="xtick_6">
     <g id="line2d_11">
      <path d="M 237.631899 228.96 
L 237.631899 7.2 
" clip-path="url(#p6a268482d0)" style="fill: none; stroke: #b0b0b0; stroke-width: 0.8; stroke-linecap: square"/>
     </g>
     <g id="line2d_12">
      <g>
       <use xlink:href="#m7f1b373916" x="237.631899" y="228.96" style="stroke: #000000; stroke-width: 0.8"/>
      </g>
     </g>
     <g id="text_6">
      <!-- 150 -->
      <g transform="translate(228.088149 243.558437) scale(0.1 -0.1)">
       <use xlink:href="#DejaVuSans-31"/>
       <use xlink:href="#DejaVuSans-35" x="63.623047"/>
       <use xlink:href="#DejaVuSans-30" x="127.246094"/>
      </g>
     </g>
    </g>
    <g id="xtick_7">
     <g id="line2d_13">
      <path d="M 273.865666 228.96 
L 273.865666 7.2 
" clip-path="url(#p6a268482d0)" style="fill: none; stroke: #b0b0b0; stroke-width: 0.8; stroke-linecap: square"/>
     </g>
     <g id="line2d_14">
      <g>
       <use xlink:href="#m7f1b373916" x="273.865666" y="228.96" style="stroke: #000000; stroke-width: 0.8"/>
      </g>
     </g>
     <g id="text_7">
      <!-- 175 -->
      <g transform="translate(264.321916 243.558437) scale(0.1 -0.1)">
       <use xlink:href="#DejaVuSans-31"/>
       <use xlink:href="#DejaVuSans-37" x="63.623047"/>
       <use xlink:href="#DejaVuSans-35" x="127.246094"/>
      </g>
     </g>
    </g>
    <g id="xtick_8">
     <g id="line2d_15">
      <path d="M 310.099432 228.96 
L 310.099432 7.2 
" clip-path="url(#p6a268482d0)" style="fill: none; stroke: #b0b0b0; stroke-width: 0.8; stroke-linecap: square"/>
     </g>
     <g id="line2d_16">
      <g>
       <use xlink:href="#m7f1b373916" x="310.099432" y="228.96" style="stroke: #000000; stroke-width: 0.8"/>
      </g>
     </g>
     <g id="text_8">
      <!-- 200 -->
      <g transform="translate(300.555682 243.558437) scale(0.1 -0.1)">
       <use xlink:href="#DejaVuSans-32"/>
       <use xlink:href="#DejaVuSans-30" x="63.623047"/>
       <use xlink:href="#DejaVuSans-30" x="127.246094"/>
      </g>
     </g>
    </g>
    <g id="text_9">
     <!-- seed size -->
     <g transform="translate(160.065625 257.236562) scale(0.1 -0.1)">
      <defs>
       <path id="DejaVuSans-73" d="M 2834 3397 
L 2834 2853 
Q 2591 2978 2328 3040 
Q 2066 3103 1784 3103 
Q 1356 3103 1142 2972 
Q 928 2841 928 2578 
Q 928 2378 1081 2264 
Q 1234 2150 1697 2047 
L 1894 2003 
Q 2506 1872 2764 1633 
Q 3022 1394 3022 966 
Q 3022 478 2636 193 
Q 2250 -91 1575 -91 
Q 1294 -91 989 -36 
Q 684 19 347 128 
L 347 722 
Q 666 556 975 473 
Q 1284 391 1588 391 
Q 1994 391 2212 530 
Q 2431 669 2431 922 
Q 2431 1156 2273 1281 
Q 2116 1406 1581 1522 
L 1381 1569 
Q 847 1681 609 1914 
Q 372 2147 372 2553 
Q 372 3047 722 3315 
Q 1072 3584 1716 3584 
Q 2034 3584 2315 3537 
Q 2597 3491 2834 3397 
z
" transform="scale(0.015625)"/>
       <path id="DejaVuSans-65" d="M 3597 1894 
L 3597 1613 
L 953 1613 
Q 991 1019 1311 708 
Q 1631 397 2203 397 
Q 2534 397 2845 478 
Q 3156 559 3463 722 
L 3463 178 
Q 3153 47 2828 -22 
Q 2503 -91 2169 -91 
Q 1331 -91 842 396 
Q 353 884 353 1716 
Q 353 2575 817 3079 
Q 1281 3584 2069 3584 
Q 2775 3584 3186 3129 
Q 3597 2675 3597 1894 
z
M 3022 2063 
Q 3016 2534 2758 2815 
Q 2500 3097 2075 3097 
Q 1594 3097 1305 2825 
Q 1016 2553 972 2059 
L 3022 2063 
z
" transform="scale(0.015625)"/>
       <path id="DejaVuSans-64" d="M 2906 2969 
L 2906 4863 
L 3481 4863 
L 3481 0 
L 2906 0 
L 2906 525 
Q 2725 213 2448 61 
Q 2172 -91 1784 -91 
Q 1150 -91 751 415 
Q 353 922 353 1747 
Q 353 2572 751 3078 
Q 1150 3584 1784 3584 
Q 2172 3584 2448 3432 
Q 2725 3281 2906 2969 
z
M 947 1747 
Q 947 1113 1208 752 
Q 1469 391 1925 391 
Q 2381 391 2643 752 
Q 2906 1113 2906 1747 
Q 2906 2381 2643 2742 
Q 2381 3103 1925 3103 
Q 1469 3103 1208 2742 
Q 947 2381 947 1747 
z
" transform="scale(0.015625)"/>
       <path id="DejaVuSans-20" transform="scale(0.015625)"/>
       <path id="DejaVuSans-69" d="M 603 3500 
L 1178 3500 
L 1178 0 
L 603 0 
L 603 3500 
z
M 603 4863 
L 1178 4863 
L 1178 4134 
L 603 4134 
L 603 4863 
z
" transform="scale(0.015625)"/>
       <path id="DejaVuSans-7a" d="M 353 3500 
L 3084 3500 
L 3084 2975 
L 922 459 
L 3084 459 
L 3084 0 
L 275 0 
L 275 525 
L 2438 3041 
L 353 3041 
L 353 3500 
z
" transform="scale(0.015625)"/>
      </defs>
      <use xlink:href="#DejaVuSans-73"/>
      <use xlink:href="#DejaVuSans-65" x="52.099609"/>
      <use xlink:href="#DejaVuSans-65" x="113.623047"/>
      <use xlink:href="#DejaVuSans-64" x="175.146484"/>
      <use xlink:href="#DejaVuSans-20" x="238.623047"/>
      <use xlink:href="#DejaVuSans-73" x="270.410156"/>
      <use xlink:href="#DejaVuSans-69" x="322.509766"/>
      <use xlink:href="#DejaVuSans-7a" x="350.292969"/>
      <use xlink:href="#DejaVuSans-65" x="402.783203"/>
     </g>
    </g>
   </g>
   <g id="matplotlib.axis_2">
    <g id="ytick_1">
     <g id="line2d_17">
      <path d="M 43.78125 183.687422 
L 322.78125 183.687422 
" clip-path="url(#p6a268482d0)" style="fill: none; stroke: #b0b0b0; stroke-width: 0.8; stroke-linecap: square"/>
     </g>
     <g id="line2d_18">
      <defs>
       <path id="m8dbc290fc0" d="M 0 0 
L -3.5 0 
" style="stroke: #000000; stroke-width: 0.8"/>
      </defs>
      <g>
       <use xlink:href="#m8dbc290fc0" x="43.78125" y="183.687422" style="stroke: #000000; stroke-width: 0.8"/>
      </g>
     </g>
     <g id="text_10">
      <!-- 0.2 -->
      <g transform="translate(20.878125 187.486641) scale(0.1 -0.1)">
       <defs>
        <path id="DejaVuSans-2e" d="M 684 794 
L 1344 794 
L 1344 0 
L 684 0 
L 684 794 
z
" transform="scale(0.015625)"/>
       </defs>
       <use xlink:href="#DejaVuSans-30"/>
       <use xlink:href="#DejaVuSans-2e" x="63.623047"/>
       <use xlink:href="#DejaVuSans-32" x="95.410156"/>
      </g>
     </g>
    </g>
    <g id="ytick_2">
     <g id="line2d_19">
      <path d="M 43.78125 136.083612 
L 322.78125 136.083612 
" clip-path="url(#p6a268482d0)" style="fill: none; stroke: #b0b0b0; stroke-width: 0.8; stroke-linecap: square"/>
     </g>
     <g id="line2d_20">
      <g>
       <use xlink:href="#m8dbc290fc0" x="43.78125" y="136.083612" style="stroke: #000000; stroke-width: 0.8"/>
      </g>
     </g>
     <g id="text_11">
      <!-- 0.3 -->
      <g transform="translate(20.878125 139.882831) scale(0.1 -0.1)">
       <defs>
        <path id="DejaVuSans-33" d="M 2597 2516 
Q 3050 2419 3304 2112 
Q 3559 1806 3559 1356 
Q 3559 666 3084 287 
Q 2609 -91 1734 -91 
Q 1441 -91 1130 -33 
Q 819 25 488 141 
L 488 750 
Q 750 597 1062 519 
Q 1375 441 1716 441 
Q 2309 441 2620 675 
Q 2931 909 2931 1356 
Q 2931 1769 2642 2001 
Q 2353 2234 1838 2234 
L 1294 2234 
L 1294 2753 
L 1863 2753 
Q 2328 2753 2575 2939 
Q 2822 3125 2822 3475 
Q 2822 3834 2567 4026 
Q 2313 4219 1838 4219 
Q 1578 4219 1281 4162 
Q 984 4106 628 3988 
L 628 4550 
Q 988 4650 1302 4700 
Q 1616 4750 1894 4750 
Q 2613 4750 3031 4423 
Q 3450 4097 3450 3541 
Q 3450 3153 3228 2886 
Q 3006 2619 2597 2516 
z
" transform="scale(0.015625)"/>
       </defs>
       <use xlink:href="#DejaVuSans-30"/>
       <use xlink:href="#DejaVuSans-2e" x="63.623047"/>
       <use xlink:href="#DejaVuSans-33" x="95.410156"/>
      </g>
     </g>
    </g>
    <g id="ytick_3">
     <g id="line2d_21">
      <path d="M 43.78125 88.479801 
L 322.78125 88.479801 
" clip-path="url(#p6a268482d0)" style="fill: none; stroke: #b0b0b0; stroke-width: 0.8; stroke-linecap: square"/>
     </g>
     <g id="line2d_22">
      <g>
       <use xlink:href="#m8dbc290fc0" x="43.78125" y="88.479801" style="stroke: #000000; stroke-width: 0.8"/>
      </g>
     </g>
     <g id="text_12">
      <!-- 0.4 -->
      <g transform="translate(20.878125 92.27902) scale(0.1 -0.1)">
       <defs>
        <path id="DejaVuSans-34" d="M 2419 4116 
L 825 1625 
L 2419 1625 
L 2419 4116 
z
M 2253 4666 
L 3047 4666 
L 3047 1625 
L 3713 1625 
L 3713 1100 
L 3047 1100 
L 3047 0 
L 2419 0 
L 2419 1100 
L 313 1100 
L 313 1709 
L 2253 4666 
z
" transform="scale(0.015625)"/>
       </defs>
       <use xlink:href="#DejaVuSans-30"/>
       <use xlink:href="#DejaVuSans-2e" x="63.623047"/>
       <use xlink:href="#DejaVuSans-34" x="95.410156"/>
      </g>
     </g>
    </g>
    <g id="ytick_4">
     <g id="line2d_23">
      <path d="M 43.78125 40.875991 
L 322.78125 40.875991 
" clip-path="url(#p6a268482d0)" style="fill: none; stroke: #b0b0b0; stroke-width: 0.8; stroke-linecap: square"/>
     </g>
     <g id="line2d_24">
      <g>
       <use xlink:href="#m8dbc290fc0" x="43.78125" y="40.875991" style="stroke: #000000; stroke-width: 0.8"/>
      </g>
     </g>
     <g id="text_13">
      <!-- 0.5 -->
      <g transform="translate(20.878125 44.67521) scale(0.1 -0.1)">
       <use xlink:href="#DejaVuSans-30"/>
       <use xlink:href="#DejaVuSans-2e" x="63.623047"/>
       <use xlink:href="#DejaVuSans-35" x="95.410156"/>
      </g>
     </g>
    </g>
    <g id="text_14">
     <!-- F1 - score -->
     <g transform="translate(14.798438 142.551875) rotate(-90) scale(0.1 -0.1)">
      <defs>
       <path id="DejaVuSans-46" d="M 628 4666 
L 3309 4666 
L 3309 4134 
L 1259 4134 
L 1259 2759 
L 3109 2759 
L 3109 2228 
L 1259 2228 
L 1259 0 
L 628 0 
L 628 4666 
z
" transform="scale(0.015625)"/>
       <path id="DejaVuSans-2d" d="M 313 2009 
L 1997 2009 
L 1997 1497 
L 313 1497 
L 313 2009 
z
" transform="scale(0.015625)"/>
       <path id="DejaVuSans-63" d="M 3122 3366 
L 3122 2828 
Q 2878 2963 2633 3030 
Q 2388 3097 2138 3097 
Q 1578 3097 1268 2742 
Q 959 2388 959 1747 
Q 959 1106 1268 751 
Q 1578 397 2138 397 
Q 2388 397 2633 464 
Q 2878 531 3122 666 
L 3122 134 
Q 2881 22 2623 -34 
Q 2366 -91 2075 -91 
Q 1284 -91 818 406 
Q 353 903 353 1747 
Q 353 2603 823 3093 
Q 1294 3584 2113 3584 
Q 2378 3584 2631 3529 
Q 2884 3475 3122 3366 
z
" transform="scale(0.015625)"/>
       <path id="DejaVuSans-6f" d="M 1959 3097 
Q 1497 3097 1228 2736 
Q 959 2375 959 1747 
Q 959 1119 1226 758 
Q 1494 397 1959 397 
Q 2419 397 2687 759 
Q 2956 1122 2956 1747 
Q 2956 2369 2687 2733 
Q 2419 3097 1959 3097 
z
M 1959 3584 
Q 2709 3584 3137 3096 
Q 3566 2609 3566 1747 
Q 3566 888 3137 398 
Q 2709 -91 1959 -91 
Q 1206 -91 779 398 
Q 353 888 353 1747 
Q 353 2609 779 3096 
Q 1206 3584 1959 3584 
z
" transform="scale(0.015625)"/>
       <path id="DejaVuSans-72" d="M 2631 2963 
Q 2534 3019 2420 3045 
Q 2306 3072 2169 3072 
Q 1681 3072 1420 2755 
Q 1159 2438 1159 1844 
L 1159 0 
L 581 0 
L 581 3500 
L 1159 3500 
L 1159 2956 
Q 1341 3275 1631 3429 
Q 1922 3584 2338 3584 
Q 2397 3584 2469 3576 
Q 2541 3569 2628 3553 
L 2631 2963 
z
" transform="scale(0.015625)"/>
      </defs>
      <use xlink:href="#DejaVuSans-46"/>
      <use xlink:href="#DejaVuSans-31" x="57.519531"/>
      <use xlink:href="#DejaVuSans-20" x="121.142578"/>
      <use xlink:href="#DejaVuSans-2d" x="152.929688"/>
      <use xlink:href="#DejaVuSans-20" x="189.013672"/>
      <use xlink:href="#DejaVuSans-73" x="220.800781"/>
      <use xlink:href="#DejaVuSans-63" x="272.900391"/>
      <use xlink:href="#DejaVuSans-6f" x="327.880859"/>
      <use xlink:href="#DejaVuSans-72" x="389.0625"/>
      <use xlink:href="#DejaVuSans-65" x="427.925781"/>
     </g>
    </g>
   </g>
   <g id="LineCollection_1">
    <path d="M 56.463068 218.88 
L 56.463068 179.127139 
" clip-path="url(#p6a268482d0)" style="fill: none; stroke: #ceff29; stroke-width: 1.5"/>
    <path d="M 92.696834 197.08592 
L 92.696834 151.845878 
" clip-path="url(#p6a268482d0)" style="fill: none; stroke: #ceff29; stroke-width: 1.5"/>
    <path d="M 165.164367 134.730743 
L 165.164367 104.057618 
" clip-path="url(#p6a268482d0)" style="fill: none; stroke: #ceff29; stroke-width: 1.5"/>
    <path d="M 237.631899 126.910636 
L 237.631899 93.263552 
" clip-path="url(#p6a268482d0)" style="fill: none; stroke: #ceff29; stroke-width: 1.5"/>
    <path d="M 310.099432 108.34804 
L 310.099432 82.128391 
" clip-path="url(#p6a268482d0)" style="fill: none; stroke: #ceff29; stroke-width: 1.5"/>
   </g>
   <g id="LineCollection_2">
    <path d="M 56.463068 216.922115 
L 56.463068 176.263248 
" clip-path="url(#p6a268482d0)" style="fill: none; stroke: #a4ff53; stroke-width: 1.5"/>
    <path d="M 92.696834 194.65824 
L 92.696834 148.241126 
" clip-path="url(#p6a268482d0)" style="fill: none; stroke: #a4ff53; stroke-width: 1.5"/>
    <path d="M 165.164367 130.370937 
L 165.164367 99.701824 
" clip-path="url(#p6a268482d0)" style="fill: none; stroke: #a4ff53; stroke-width: 1.5"/>
    <path d="M 237.631899 122.845597 
L 237.631899 88.708599 
" clip-path="url(#p6a268482d0)" style="fill: none; stroke: #a4ff53; stroke-width: 1.5"/>
    <path d="M 310.099432 103.758617 
L 310.099432 77.077022 
" clip-path="url(#p6a268482d0)" style="fill: none; stroke: #a4ff53; stroke-width: 1.5"/>
   </g>
   <g id="LineCollection_3">
    <path d="M 56.463068 200.144178 
L 56.463068 153.392476 
" clip-path="url(#p6a268482d0)" style="fill: none; stroke: #7dff7a; stroke-width: 1.5"/>
    <path d="M 92.696834 179.646546 
L 92.696834 127.059354 
" clip-path="url(#p6a268482d0)" style="fill: none; stroke: #7dff7a; stroke-width: 1.5"/>
    <path d="M 165.164367 100.669033 
L 165.164367 72.543815 
" clip-path="url(#p6a268482d0)" style="fill: none; stroke: #7dff7a; stroke-width: 1.5"/>
    <path d="M 237.631899 97.499732 
L 237.631899 62.607822 
" clip-path="url(#p6a268482d0)" style="fill: none; stroke: #7dff7a; stroke-width: 1.5"/>
    <path d="M 310.099432 77.366524 
L 310.099432 51.718973 
" clip-path="url(#p6a268482d0)" style="fill: none; stroke: #7dff7a; stroke-width: 1.5"/>
   </g>
   <g id="LineCollection_4">
    <path d="M 56.463068 190.600303 
L 56.463068 141.606132 
" clip-path="url(#p6a268482d0)" style="fill: none; stroke: #53ffa4; stroke-width: 1.5"/>
    <path d="M 92.696834 171.620042 
L 92.696834 117.464047 
" clip-path="url(#p6a268482d0)" style="fill: none; stroke: #53ffa4; stroke-width: 1.5"/>
    <path d="M 165.164367 85.418027 
L 165.164367 60.429627 
" clip-path="url(#p6a268482d0)" style="fill: none; stroke: #53ffa4; stroke-width: 1.5"/>
    <path d="M 237.631899 84.766778 
L 237.631899 50.371803 
" clip-path="url(#p6a268482d0)" style="fill: none; stroke: #53ffa4; stroke-width: 1.5"/>
    <path d="M 310.099432 62.905599 
L 310.099432 38.199459 
" clip-path="url(#p6a268482d0)" style="fill: none; stroke: #53ffa4; stroke-width: 1.5"/>
   </g>
   <g id="LineCollection_5">
    <path d="M 56.463068 183.828677 
L 56.463068 133.048551 
" clip-path="url(#p6a268482d0)" style="fill: none; stroke: #29ffce; stroke-width: 1.5"/>
    <path d="M 92.696834 166.643649 
L 92.696834 112.491823 
" clip-path="url(#p6a268482d0)" style="fill: none; stroke: #29ffce; stroke-width: 1.5"/>
    <path d="M 165.164367 76.196342 
L 165.164367 52.897761 
" clip-path="url(#p6a268482d0)" style="fill: none; stroke: #29ffce; stroke-width: 1.5"/>
    <path d="M 237.631899 76.32975 
L 237.631899 42.900697 
" clip-path="url(#p6a268482d0)" style="fill: none; stroke: #29ffce; stroke-width: 1.5"/>
    <path d="M 310.099432 52.880967 
L 310.099432 29.697829 
" clip-path="url(#p6a268482d0)" style="fill: none; stroke: #29ffce; stroke-width: 1.5"/>
   </g>
   <g id="LineCollection_6">
    <path d="M 56.463068 181.758319 
L 56.463068 131.527812 
" clip-path="url(#p6a268482d0)" style="fill: none; stroke: #00e4f8; stroke-width: 1.5"/>
    <path d="M 92.696834 168.835788 
L 92.696834 117.796814 
" clip-path="url(#p6a268482d0)" style="fill: none; stroke: #00e4f8; stroke-width: 1.5"/>
    <path d="M 165.164367 77.82101 
L 165.164367 57.891997 
" clip-path="url(#p6a268482d0)" style="fill: none; stroke: #00e4f8; stroke-width: 1.5"/>
    <path d="M 237.631899 78.723844 
L 237.631899 47.528838 
" clip-path="url(#p6a268482d0)" style="fill: none; stroke: #00e4f8; stroke-width: 1.5"/>
    <path d="M 310.099432 51.149252 
L 310.099432 30.900353 
" clip-path="url(#p6a268482d0)" style="fill: none; stroke: #00e4f8; stroke-width: 1.5"/>
   </g>
   <g id="LineCollection_7">
    <path d="M 56.463068 181.128656 
L 56.463068 131.141411 
" clip-path="url(#p6a268482d0)" style="fill: none; stroke: #00b0ff; stroke-width: 1.5"/>
    <path d="M 92.696834 164.283628 
L 92.696834 113.173832 
" clip-path="url(#p6a268482d0)" style="fill: none; stroke: #00b0ff; stroke-width: 1.5"/>
    <path d="M 165.164367 69.852795 
L 165.164367 51.666258 
" clip-path="url(#p6a268482d0)" style="fill: none; stroke: #00b0ff; stroke-width: 1.5"/>
    <path d="M 237.631899 72.460215 
L 237.631899 42.475473 
" clip-path="url(#p6a268482d0)" style="fill: none; stroke: #00b0ff; stroke-width: 1.5"/>
    <path d="M 310.099432 47.629143 
L 310.099432 26.884151 
" clip-path="url(#p6a268482d0)" style="fill: none; stroke: #00b0ff; stroke-width: 1.5"/>
   </g>
   <g id="LineCollection_8">
    <path d="M 56.463068 177.533337 
L 56.463068 126.782646 
" clip-path="url(#p6a268482d0)" style="fill: none; stroke: #0080ff; stroke-width: 1.5"/>
    <path d="M 92.696834 159.321516 
L 92.696834 108.441703 
" clip-path="url(#p6a268482d0)" style="fill: none; stroke: #0080ff; stroke-width: 1.5"/>
    <path d="M 165.164367 62.874363 
L 165.164367 45.627502 
" clip-path="url(#p6a268482d0)" style="fill: none; stroke: #0080ff; stroke-width: 1.5"/>
    <path d="M 237.631899 66.0116 
L 237.631899 37.552661 
" clip-path="url(#p6a268482d0)" style="fill: none; stroke: #0080ff; stroke-width: 1.5"/>
    <path d="M 310.099432 44.549693 
L 310.099432 23.39201 
" clip-path="url(#p6a268482d0)" style="fill: none; stroke: #0080ff; stroke-width: 1.5"/>
   </g>
   <g id="LineCollection_9">
    <path d="M 56.463068 173.647275 
L 56.463068 121.589031 
" clip-path="url(#p6a268482d0)" style="fill: none; stroke: #0018ff; stroke-width: 1.5"/>
    <path d="M 92.696834 153.527137 
L 92.696834 101.753387 
" clip-path="url(#p6a268482d0)" style="fill: none; stroke: #0018ff; stroke-width: 1.5"/>
    <path d="M 165.164367 55.366503 
L 165.164367 38.492335 
" clip-path="url(#p6a268482d0)" style="fill: none; stroke: #0018ff; stroke-width: 1.5"/>
    <path d="M 237.631899 56.209625 
L 237.631899 30.574154 
" clip-path="url(#p6a268482d0)" style="fill: none; stroke: #0018ff; stroke-width: 1.5"/>
    <path d="M 310.099432 36.52679 
L 310.099432 17.28 
" clip-path="url(#p6a268482d0)" style="fill: none; stroke: #0018ff; stroke-width: 1.5"/>
   </g>
   <g id="line2d_25">
    <path d="M 56.463068 199.003569 
L 92.696834 174.465899 
L 165.164367 119.394181 
L 237.631899 110.087094 
L 310.099432 95.238215 
" clip-path="url(#p6a268482d0)" style="fill: none; stroke: #ceff29; stroke-width: 1.5; stroke-linecap: square"/>
   </g>
   <g id="line2d_26">
    <path d="M 56.463068 196.592681 
L 92.696834 171.449683 
L 165.164367 115.03638 
L 237.631899 105.777098 
L 310.099432 90.417819 
" clip-path="url(#p6a268482d0)" style="fill: none; stroke: #a4ff53; stroke-width: 1.5; stroke-linecap: square"/>
   </g>
   <g id="line2d_27">
    <path d="M 56.463068 176.768327 
L 92.696834 153.35295 
L 165.164367 86.606424 
L 237.631899 80.053777 
L 310.099432 64.542748 
" clip-path="url(#p6a268482d0)" style="fill: none; stroke: #7dff7a; stroke-width: 1.5; stroke-linecap: square"/>
   </g>
   <g id="line2d_28">
    <path d="M 56.463068 166.103217 
L 92.696834 144.542045 
L 165.164367 72.923827 
L 237.631899 67.56929 
L 310.099432 50.552529 
" clip-path="url(#p6a268482d0)" style="fill: none; stroke: #53ffa4; stroke-width: 1.5; stroke-linecap: square"/>
   </g>
   <g id="line2d_29">
    <path d="M 56.463068 158.438614 
L 92.696834 139.567736 
L 165.164367 64.547052 
L 237.631899 59.615223 
L 310.099432 41.289398 
" clip-path="url(#p6a268482d0)" style="fill: none; stroke: #29ffce; stroke-width: 1.5; stroke-linecap: square"/>
   </g>
   <g id="line2d_30">
    <path d="M 56.463068 156.643066 
L 92.696834 143.316301 
L 165.164367 67.856503 
L 237.631899 63.126341 
L 310.099432 41.024802 
" clip-path="url(#p6a268482d0)" style="fill: none; stroke: #00e4f8; stroke-width: 1.5; stroke-linecap: square"/>
   </g>
   <g id="line2d_31">
    <path d="M 56.463068 156.135033 
L 92.696834 138.72873 
L 165.164367 60.759526 
L 237.631899 57.467844 
L 310.099432 37.256647 
" clip-path="url(#p6a268482d0)" style="fill: none; stroke: #00b0ff; stroke-width: 1.5; stroke-linecap: square"/>
   </g>
   <g id="line2d_32">
    <path d="M 56.463068 152.157992 
L 92.696834 133.88161 
L 165.164367 54.250932 
L 237.631899 51.78213 
L 310.099432 33.970852 
" clip-path="url(#p6a268482d0)" style="fill: none; stroke: #0080ff; stroke-width: 1.5; stroke-linecap: square"/>
   </g>
   <g id="line2d_33">
    <path d="M 56.463068 147.618153 
L 92.696834 127.640262 
L 165.164367 46.929419 
L 237.631899 43.39189 
L 310.099432 26.903395 
" clip-path="url(#p6a268482d0)" style="fill: none; stroke: #0018ff; stroke-width: 1.5; stroke-linecap: square"/>
   </g>
   <g id="patch_3">
    <path d="M 43.78125 228.96 
L 43.78125 7.2 
" style="fill: none; stroke: #000000; stroke-width: 0.8; stroke-linejoin: miter; stroke-linecap: square"/>
   </g>
   <g id="patch_4">
    <path d="M 322.78125 228.96 
L 322.78125 7.2 
" style="fill: none; stroke: #000000; stroke-width: 0.8; stroke-linejoin: miter; stroke-linecap: square"/>
   </g>
   <g id="patch_5">
    <path d="M 43.78125 228.96 
L 322.78125 228.96 
" style="fill: none; stroke: #000000; stroke-width: 0.8; stroke-linejoin: miter; stroke-linecap: square"/>
   </g>
   <g id="patch_6">
    <path d="M 43.78125 7.2 
L 322.78125 7.2 
" style="fill: none; stroke: #000000; stroke-width: 0.8; stroke-linejoin: miter; stroke-linecap: square"/>
   </g>
   <g id="legend_1">
    <g id="patch_7">
     <path d="M 235.173438 223.96 
L 315.78125 223.96 
Q 317.78125 223.96 317.78125 221.96 
L 317.78125 90.856875 
Q 317.78125 88.856875 315.78125 88.856875 
L 235.173438 88.856875 
Q 233.173438 88.856875 233.173438 90.856875 
L 233.173438 221.96 
Q 233.173438 223.96 235.173438 223.96 
z
" style="fill: #ffffff; opacity: 0.8; stroke: #cccccc; stroke-linejoin: miter"/>
    </g>
    <g id="LineCollection_10">
     <path d="M 247.173438 101.955312 
L 247.173438 91.955312 
" style="fill: none; stroke: #ceff29; stroke-width: 1.5"/>
    </g>
    <g id="line2d_34">
     <path d="M 237.173438 96.955312 
L 257.173437 96.955312 
" style="fill: none; stroke: #ceff29; stroke-width: 1.5; stroke-linecap: square"/>
    </g>
    <g id="line2d_35"/>
    <g id="text_15">
     <!-- EWS -->
     <g transform="translate(265.173437 100.455312) scale(0.1 -0.1)">
      <defs>
       <path id="DejaVuSans-45" d="M 628 4666 
L 3578 4666 
L 3578 4134 
L 1259 4134 
L 1259 2753 
L 3481 2753 
L 3481 2222 
L 1259 2222 
L 1259 531 
L 3634 531 
L 3634 0 
L 628 0 
L 628 4666 
z
" transform="scale(0.015625)"/>
       <path id="DejaVuSans-57" d="M 213 4666 
L 850 4666 
L 1831 722 
L 2809 4666 
L 3519 4666 
L 4500 722 
L 5478 4666 
L 6119 4666 
L 4947 0 
L 4153 0 
L 3169 4050 
L 2175 0 
L 1381 0 
L 213 4666 
z
" transform="scale(0.015625)"/>
       <path id="DejaVuSans-53" d="M 3425 4513 
L 3425 3897 
Q 3066 4069 2747 4153 
Q 2428 4238 2131 4238 
Q 1616 4238 1336 4038 
Q 1056 3838 1056 3469 
Q 1056 3159 1242 3001 
Q 1428 2844 1947 2747 
L 2328 2669 
Q 3034 2534 3370 2195 
Q 3706 1856 3706 1288 
Q 3706 609 3251 259 
Q 2797 -91 1919 -91 
Q 1588 -91 1214 -16 
Q 841 59 441 206 
L 441 856 
Q 825 641 1194 531 
Q 1563 422 1919 422 
Q 2459 422 2753 634 
Q 3047 847 3047 1241 
Q 3047 1584 2836 1778 
Q 2625 1972 2144 2069 
L 1759 2144 
Q 1053 2284 737 2584 
Q 422 2884 422 3419 
Q 422 4038 858 4394 
Q 1294 4750 2059 4750 
Q 2388 4750 2728 4690 
Q 3069 4631 3425 4513 
z
" transform="scale(0.015625)"/>
      </defs>
      <use xlink:href="#DejaVuSans-45"/>
      <use xlink:href="#DejaVuSans-57" x="63.183594"/>
      <use xlink:href="#DejaVuSans-53" x="162.060547"/>
     </g>
    </g>
    <g id="LineCollection_11">
     <path d="M 247.173438 116.633438 
L 247.173438 106.633438 
" style="fill: none; stroke: #a4ff53; stroke-width: 1.5"/>
    </g>
    <g id="line2d_36">
     <path d="M 237.173438 111.633438 
L 257.173437 111.633438 
" style="fill: none; stroke: #a4ff53; stroke-width: 1.5; stroke-linecap: square"/>
    </g>
    <g id="line2d_37"/>
    <g id="text_16">
     <!-- iteration1 -->
     <g transform="translate(265.173437 115.133438) scale(0.1 -0.1)">
      <defs>
       <path id="DejaVuSans-74" d="M 1172 4494 
L 1172 3500 
L 2356 3500 
L 2356 3053 
L 1172 3053 
L 1172 1153 
Q 1172 725 1289 603 
Q 1406 481 1766 481 
L 2356 481 
L 2356 0 
L 1766 0 
Q 1100 0 847 248 
Q 594 497 594 1153 
L 594 3053 
L 172 3053 
L 172 3500 
L 594 3500 
L 594 4494 
L 1172 4494 
z
" transform="scale(0.015625)"/>
       <path id="DejaVuSans-61" d="M 2194 1759 
Q 1497 1759 1228 1600 
Q 959 1441 959 1056 
Q 959 750 1161 570 
Q 1363 391 1709 391 
Q 2188 391 2477 730 
Q 2766 1069 2766 1631 
L 2766 1759 
L 2194 1759 
z
M 3341 1997 
L 3341 0 
L 2766 0 
L 2766 531 
Q 2569 213 2275 61 
Q 1981 -91 1556 -91 
Q 1019 -91 701 211 
Q 384 513 384 1019 
Q 384 1609 779 1909 
Q 1175 2209 1959 2209 
L 2766 2209 
L 2766 2266 
Q 2766 2663 2505 2880 
Q 2244 3097 1772 3097 
Q 1472 3097 1187 3025 
Q 903 2953 641 2809 
L 641 3341 
Q 956 3463 1253 3523 
Q 1550 3584 1831 3584 
Q 2591 3584 2966 3190 
Q 3341 2797 3341 1997 
z
" transform="scale(0.015625)"/>
       <path id="DejaVuSans-6e" d="M 3513 2113 
L 3513 0 
L 2938 0 
L 2938 2094 
Q 2938 2591 2744 2837 
Q 2550 3084 2163 3084 
Q 1697 3084 1428 2787 
Q 1159 2491 1159 1978 
L 1159 0 
L 581 0 
L 581 3500 
L 1159 3500 
L 1159 2956 
Q 1366 3272 1645 3428 
Q 1925 3584 2291 3584 
Q 2894 3584 3203 3211 
Q 3513 2838 3513 2113 
z
" transform="scale(0.015625)"/>
      </defs>
      <use xlink:href="#DejaVuSans-69"/>
      <use xlink:href="#DejaVuSans-74" x="27.783203"/>
      <use xlink:href="#DejaVuSans-65" x="66.992188"/>
      <use xlink:href="#DejaVuSans-72" x="128.515625"/>
      <use xlink:href="#DejaVuSans-61" x="169.628906"/>
      <use xlink:href="#DejaVuSans-74" x="230.908203"/>
      <use xlink:href="#DejaVuSans-69" x="270.117188"/>
      <use xlink:href="#DejaVuSans-6f" x="297.900391"/>
      <use xlink:href="#DejaVuSans-6e" x="359.082031"/>
      <use xlink:href="#DejaVuSans-31" x="422.460938"/>
     </g>
    </g>
    <g id="LineCollection_12">
     <path d="M 247.173438 131.311562 
L 247.173438 121.311562 
" style="fill: none; stroke: #7dff7a; stroke-width: 1.5"/>
    </g>
    <g id="line2d_38">
     <path d="M 237.173438 126.311562 
L 257.173437 126.311562 
" style="fill: none; stroke: #7dff7a; stroke-width: 1.5; stroke-linecap: square"/>
    </g>
    <g id="line2d_39"/>
    <g id="text_17">
     <!-- iteration2 -->
     <g transform="translate(265.173437 129.811562) scale(0.1 -0.1)">
      <use xlink:href="#DejaVuSans-69"/>
      <use xlink:href="#DejaVuSans-74" x="27.783203"/>
      <use xlink:href="#DejaVuSans-65" x="66.992188"/>
      <use xlink:href="#DejaVuSans-72" x="128.515625"/>
      <use xlink:href="#DejaVuSans-61" x="169.628906"/>
      <use xlink:href="#DejaVuSans-74" x="230.908203"/>
      <use xlink:href="#DejaVuSans-69" x="270.117188"/>
      <use xlink:href="#DejaVuSans-6f" x="297.900391"/>
      <use xlink:href="#DejaVuSans-6e" x="359.082031"/>
      <use xlink:href="#DejaVuSans-32" x="422.460938"/>
     </g>
    </g>
    <g id="LineCollection_13">
     <path d="M 247.173438 145.989688 
L 247.173438 135.989688 
" style="fill: none; stroke: #53ffa4; stroke-width: 1.5"/>
    </g>
    <g id="line2d_40">
     <path d="M 237.173438 140.989688 
L 257.173437 140.989688 
" style="fill: none; stroke: #53ffa4; stroke-width: 1.5; stroke-linecap: square"/>
    </g>
    <g id="line2d_41"/>
    <g id="text_18">
     <!-- iteration3 -->
     <g transform="translate(265.173437 144.489688) scale(0.1 -0.1)">
      <use xlink:href="#DejaVuSans-69"/>
      <use xlink:href="#DejaVuSans-74" x="27.783203"/>
      <use xlink:href="#DejaVuSans-65" x="66.992188"/>
      <use xlink:href="#DejaVuSans-72" x="128.515625"/>
      <use xlink:href="#DejaVuSans-61" x="169.628906"/>
      <use xlink:href="#DejaVuSans-74" x="230.908203"/>
      <use xlink:href="#DejaVuSans-69" x="270.117188"/>
      <use xlink:href="#DejaVuSans-6f" x="297.900391"/>
      <use xlink:href="#DejaVuSans-6e" x="359.082031"/>
      <use xlink:href="#DejaVuSans-33" x="422.460938"/>
     </g>
    </g>
    <g id="LineCollection_14">
     <path d="M 247.173438 160.667812 
L 247.173438 150.667812 
" style="fill: none; stroke: #29ffce; stroke-width: 1.5"/>
    </g>
    <g id="line2d_42">
     <path d="M 237.173438 155.667812 
L 257.173437 155.667812 
" style="fill: none; stroke: #29ffce; stroke-width: 1.5; stroke-linecap: square"/>
    </g>
    <g id="line2d_43"/>
    <g id="text_19">
     <!-- iteration4 -->
     <g transform="translate(265.173437 159.167812) scale(0.1 -0.1)">
      <use xlink:href="#DejaVuSans-69"/>
      <use xlink:href="#DejaVuSans-74" x="27.783203"/>
      <use xlink:href="#DejaVuSans-65" x="66.992188"/>
      <use xlink:href="#DejaVuSans-72" x="128.515625"/>
      <use xlink:href="#DejaVuSans-61" x="169.628906"/>
      <use xlink:href="#DejaVuSans-74" x="230.908203"/>
      <use xlink:href="#DejaVuSans-69" x="270.117188"/>
      <use xlink:href="#DejaVuSans-6f" x="297.900391"/>
      <use xlink:href="#DejaVuSans-6e" x="359.082031"/>
      <use xlink:href="#DejaVuSans-34" x="422.460938"/>
     </g>
    </g>
    <g id="LineCollection_15">
     <path d="M 247.173438 175.345937 
L 247.173438 165.345937 
" style="fill: none; stroke: #00e4f8; stroke-width: 1.5"/>
    </g>
    <g id="line2d_44">
     <path d="M 237.173438 170.345937 
L 257.173437 170.345937 
" style="fill: none; stroke: #00e4f8; stroke-width: 1.5; stroke-linecap: square"/>
    </g>
    <g id="line2d_45"/>
    <g id="text_20">
     <!-- iteration5 -->
     <g transform="translate(265.173437 173.845937) scale(0.1 -0.1)">
      <use xlink:href="#DejaVuSans-69"/>
      <use xlink:href="#DejaVuSans-74" x="27.783203"/>
      <use xlink:href="#DejaVuSans-65" x="66.992188"/>
      <use xlink:href="#DejaVuSans-72" x="128.515625"/>
      <use xlink:href="#DejaVuSans-61" x="169.628906"/>
      <use xlink:href="#DejaVuSans-74" x="230.908203"/>
      <use xlink:href="#DejaVuSans-69" x="270.117188"/>
      <use xlink:href="#DejaVuSans-6f" x="297.900391"/>
      <use xlink:href="#DejaVuSans-6e" x="359.082031"/>
      <use xlink:href="#DejaVuSans-35" x="422.460938"/>
     </g>
    </g>
    <g id="LineCollection_16">
     <path d="M 247.173438 190.024062 
L 247.173438 180.024062 
" style="fill: none; stroke: #00b0ff; stroke-width: 1.5"/>
    </g>
    <g id="line2d_46">
     <path d="M 237.173438 185.024062 
L 257.173437 185.024062 
" style="fill: none; stroke: #00b0ff; stroke-width: 1.5; stroke-linecap: square"/>
    </g>
    <g id="line2d_47"/>
    <g id="text_21">
     <!-- iteration6 -->
     <g transform="translate(265.173437 188.524062) scale(0.1 -0.1)">
      <defs>
       <path id="DejaVuSans-36" d="M 2113 2584 
Q 1688 2584 1439 2293 
Q 1191 2003 1191 1497 
Q 1191 994 1439 701 
Q 1688 409 2113 409 
Q 2538 409 2786 701 
Q 3034 994 3034 1497 
Q 3034 2003 2786 2293 
Q 2538 2584 2113 2584 
z
M 3366 4563 
L 3366 3988 
Q 3128 4100 2886 4159 
Q 2644 4219 2406 4219 
Q 1781 4219 1451 3797 
Q 1122 3375 1075 2522 
Q 1259 2794 1537 2939 
Q 1816 3084 2150 3084 
Q 2853 3084 3261 2657 
Q 3669 2231 3669 1497 
Q 3669 778 3244 343 
Q 2819 -91 2113 -91 
Q 1303 -91 875 529 
Q 447 1150 447 2328 
Q 447 3434 972 4092 
Q 1497 4750 2381 4750 
Q 2619 4750 2861 4703 
Q 3103 4656 3366 4563 
z
" transform="scale(0.015625)"/>
      </defs>
      <use xlink:href="#DejaVuSans-69"/>
      <use xlink:href="#DejaVuSans-74" x="27.783203"/>
      <use xlink:href="#DejaVuSans-65" x="66.992188"/>
      <use xlink:href="#DejaVuSans-72" x="128.515625"/>
      <use xlink:href="#DejaVuSans-61" x="169.628906"/>
      <use xlink:href="#DejaVuSans-74" x="230.908203"/>
      <use xlink:href="#DejaVuSans-69" x="270.117188"/>
      <use xlink:href="#DejaVuSans-6f" x="297.900391"/>
      <use xlink:href="#DejaVuSans-6e" x="359.082031"/>
      <use xlink:href="#DejaVuSans-36" x="422.460938"/>
     </g>
    </g>
    <g id="LineCollection_17">
     <path d="M 247.173438 204.702187 
L 247.173438 194.702187 
" style="fill: none; stroke: #0080ff; stroke-width: 1.5"/>
    </g>
    <g id="line2d_48">
     <path d="M 237.173438 199.702187 
L 257.173437 199.702187 
" style="fill: none; stroke: #0080ff; stroke-width: 1.5; stroke-linecap: square"/>
    </g>
    <g id="line2d_49"/>
    <g id="text_22">
     <!-- iteration7 -->
     <g transform="translate(265.173437 203.202187) scale(0.1 -0.1)">
      <use xlink:href="#DejaVuSans-69"/>
      <use xlink:href="#DejaVuSans-74" x="27.783203"/>
      <use xlink:href="#DejaVuSans-65" x="66.992188"/>
      <use xlink:href="#DejaVuSans-72" x="128.515625"/>
      <use xlink:href="#DejaVuSans-61" x="169.628906"/>
      <use xlink:href="#DejaVuSans-74" x="230.908203"/>
      <use xlink:href="#DejaVuSans-69" x="270.117188"/>
      <use xlink:href="#DejaVuSans-6f" x="297.900391"/>
      <use xlink:href="#DejaVuSans-6e" x="359.082031"/>
      <use xlink:href="#DejaVuSans-37" x="422.460938"/>
     </g>
    </g>
    <g id="LineCollection_18">
     <path d="M 247.173438 219.380312 
L 247.173438 209.380312 
" style="fill: none; stroke: #0018ff; stroke-width: 1.5"/>
    </g>
    <g id="line2d_50">
     <path d="M 237.173438 214.380312 
L 257.173437 214.380312 
" style="fill: none; stroke: #0018ff; stroke-width: 1.5; stroke-linecap: square"/>
    </g>
    <g id="line2d_51"/>
    <g id="text_23">
     <!-- Irma -->
     <g transform="translate(265.173437 217.880312) scale(0.1 -0.1)">
      <defs>
       <path id="DejaVuSans-49" d="M 628 4666 
L 1259 4666 
L 1259 0 
L 628 0 
L 628 4666 
z
" transform="scale(0.015625)"/>
       <path id="DejaVuSans-6d" d="M 3328 2828 
Q 3544 3216 3844 3400 
Q 4144 3584 4550 3584 
Q 5097 3584 5394 3201 
Q 5691 2819 5691 2113 
L 5691 0 
L 5113 0 
L 5113 2094 
Q 5113 2597 4934 2840 
Q 4756 3084 4391 3084 
Q 3944 3084 3684 2787 
Q 3425 2491 3425 1978 
L 3425 0 
L 2847 0 
L 2847 2094 
Q 2847 2600 2669 2842 
Q 2491 3084 2119 3084 
Q 1678 3084 1418 2786 
Q 1159 2488 1159 1978 
L 1159 0 
L 581 0 
L 581 3500 
L 1159 3500 
L 1159 2956 
Q 1356 3278 1631 3431 
Q 1906 3584 2284 3584 
Q 2666 3584 2933 3390 
Q 3200 3197 3328 2828 
z
" transform="scale(0.015625)"/>
      </defs>
      <use xlink:href="#DejaVuSans-49"/>
      <use xlink:href="#DejaVuSans-72" x="29.492188"/>
      <use xlink:href="#DejaVuSans-6d" x="68.855469"/>
      <use xlink:href="#DejaVuSans-61" x="166.267578"/>
     </g>
    </g>
   </g>
  </g>
 </g>
 <defs>
  <clipPath id="p6a268482d0">
   <rect x="43.78125" y="7.2" width="279" height="221.76"/>
  </clipPath>
 </defs>
</svg>
